<svg xmlns="http://www.w3.org/2000/svg" width="1019" height="889" viewBox="0 0 1019 889"><defs><clipPath id="bwvia"><path fill="#fff" d="M478 393c8.284 0 15 6.716 15 15 0 8.284-6.716 15-15 15-8.284 0-15-6.716-15-15 0-8.284 6.716-15 15-15z"/></clipPath></defs><g><g><path fill="#42a5f5" d="M847 301l-14 11-9-7-8 10-17-3-13 10-2 20-14-15-14 9 2-16-20 1-11 17-11-8-34-2-7 16-11 6-4-4 9-13-8-6 7-8 1-25 5-16-15 7-14-3 1-7-24-1 1 12-13-7-17 8-9-16h-20v15l-7 2-13-17-13-1-11 11-27-6-2-18-39-25-8-20-26 3-11-10-19 10-15-6-4 6-14-6-9 5-4-7 2-18 11-6 31-3 11-22-26-10 2-31 13-13-1-15 5-6 17-1 15-21 19-5 10 12 30 1 8-27 29-33 18-9 17 17 21-8 13 9 5 16 15-3 27-5 29 14-6 31 13 9 23-16 33-11 43 8 28 32h18l1 43-11 16 20 30-6 32-18 26 45 25 3 7-10 21z"/></g><g><path fill="#42a5f5" d="M667 293v25l-8 9 8 6-9 13 12 13-2 21-10 10 11 34 9 6-32 26-12-3-1 17-14 9-15-11-20 3-23 24 4 29-35 5 42 20 5 31-9 4-8 38 13 14-6 25-14 8-25-5-11 3-4 11-31-8-4-11-21 1-6 15-9 9-22-19-6-30v-20l-9 5-21-11-16-13-16 11-1-34 12-14-24-20 10-28 23-9-5-30-22-28-8-27 24-14-17-26-9 6-3-21-11-1 14-10 10 5 23-22 9-15 8-2v-18l-2-8 7-5-2-14-11-4-5-16-9-15-10-2 1-8-7-11 8-5 14 6 5-6 14 6 19-9 10 9 26-3 8 20 38 24 3 19 28 6 12-11h11l14 18 9-3-1-14 18-1 9 17 18-8 15 7-1-12 20 1-1 6 17 4 11-6z"/></g><g><path fill="#42a5f5" d="M601 631l-27 3-12-13 7-36 10-4-5-33-38-18 31-4-4-31 22-22 18-2 16 10 15-10 1-16 12 3 33-28-10-8-10-31 9-9 3-24-7-7 12-6 6-15 32 2 12 8 12-17 17-1-2 17 16-10 15 17 3-23 12-9 17 3 7-10 9 7 16-12 7 7 8 13 1 16 31 19 28 9-1 26-8 22 12 10 24-11 40 18-6 21 34 23v25l-21 7-21 33-22 11-31-10-4-9-16-5-20 4-5 20-26-12-15-24-32 8-15-11-39 21-13-17-26-5-6 17 5 9-2 14-13-1 8 32-32 5-26-9-8 18-14 6z"/></g><g><path fill="#42a5f5" d="M85 603l19-5 13 9 18-2 15 5 3-24 15-18 29 8 10 22h29l-3-18 32-24v-33l13-22 69 8 23-8-5-28-22-28-8-29 23-13-14-23-11 7-3-23-16-1 21-15 10 5 19-18 12-18 7-2v-14l-3-10 7-6-1-11-11-4-4-15-9-16-12-2 2-8-12-21-13 5-4 6-6-3-12 7-14 21 2 40-18 23-6 22 16 6 6 24-13 6-13-6 5-15-5-10-31 8-17 20-9-6-21 7 2 17-15 3-17 11-10 8-25-13-21 5-5-5-40-2-2 28 7 9-1 24 18 68 9 18-6 12 7 13z"/></g><g><path fill="#42a5f5" d="M468 823l-3-19 8-16-7-28 12-8-12-20 6-20-35-19 16-18 5-13 19-1 3 10 35 9 3-11 10-3 25 5 16-9 6-26 27-3 24-30 15-6 7-16 25 8 35-5-8-32h12l1-16-4-8 5-15 24 5 14 17 39-21 14 11 32-8 14 23 27 13-5 14 11 8 1 10 22 20-6 21 13 20-3 44 15 10 7 24-15 7-25-8-15 20-15-10-19 3-2 14-17 21-18 30-6 18 10 26 1 33-9 11-22-20-2-13-16-14-47 13-6-15-18 10-4 14-20 3-11-21 1-13-14-16-15 15-17 4-7 23-10-5-3-20h-10l-9-5-12 12-16-23-16 16-15 1-8-12-5 3 4 13-13 11-10-8 8-14z"/></g><g><path fill="#42a5f5" d="M466 824l-3-20 8-15-7-30 12-7-12-20 6-19-36-19 7-8-23-20-6-30v-18l-7 4-22-12-15-12-17 12-2-38 11-13-23-19 10-29-68-8-12 20-1 34-31 24 3 19-32-1-10-21-27-8-14 17-3 25-17-5-18 2-14-9-18 5-2 12-12 5-8 10-22 1-26 25-15 26 5 16 39 23 4 20-19 43v26l3 12 11 4v-22l13-4 13 12 18-2 27-20 2-15 11-11 41 3 20-3 24-12 24 12 47-2 38 11 21 1 12 15 26-2 9 10 21 4 12-6h8l2 15 7 16z"/></g><g><path fill="#007cb9" d="M478 393c8.284 0 15 6.716 15 15 0 8.284-6.716 15-15 15-8.284 0-15-6.716-15-15 0-8.284 6.716-15 15-15z"/><path fill="none" stroke="#fff" stroke-linecap="round" stroke-linejoin="round" stroke-miterlimit="20" stroke-width="4" d="M478 393c8.284 0 15 6.716 15 15 0 8.284-6.716 15-15 15-8.284 0-15-6.716-15-15 0-8.284 6.716-15 15-15z" clip-path="url(&quot;#bwvia&quot;)"/></g></g></svg>